<?xml version="1.0" standalone="no"?>
<!DOCTYPE svg PUBLIC "-//W3C//DTD SVG 20010904//EN"
 "http://www.w3.org/TR/2001/REC-SVG-20010904/DTD/svg10.dtd">
<svg version="1.0" xmlns="http://www.w3.org/2000/svg"
 width="283.000000pt" height="283.000000pt" viewBox="0 0 283.000000 283.000000"
 preserveAspectRatio="xMidYMid meet">
<metadata>
Created by potrace 1.11, written by Peter Selinger 2001-2013
</metadata>
<g transform="translate(0.000000,283.000000) scale(0.100000,-0.100000)"
fill="#000000" stroke="none">
<path d="M1240 2690 c-22 -6 -156 -80 -200 -110 -8 -6 -27 -16 -42 -23 -16 -6
-28 -15 -28 -19 0 -4 -5 -8 -11 -8 -7 0 -35 -14 -63 -32 -28 -17 -67 -40 -86
-51 -19 -10 -60 -34 -90 -52 -30 -18 -108 -63 -173 -101 -64 -38 -120 -77
-123 -87 -9 -27 -9 -928 0 -954 6 -17 141 -113 160 -113 2 0 34 -18 70 -40 36
-22 70 -40 76 -40 5 0 10 -3 10 -7 0 -5 10 -13 23 -19 22 -11 85 -47 196 -112
31 -18 67 -38 81 -45 14 -6 31 -17 38 -24 7 -7 18 -13 24 -13 5 0 29 -13 52
-28 60 -40 102 -55 133 -47 15 3 81 38 147 77 67 39 146 84 176 101 30 16 67
38 82 49 14 10 30 18 35 18 4 0 32 16 60 35 29 19 55 35 57 35 3 0 34 17 68
38 35 20 81 46 102 57 21 11 53 34 71 50 l32 30 -1 135 c-1 113 -3 135 -17
138 -8 1 -61 -25 -117 -59 -57 -33 -109 -58 -117 -55 -13 5 -15 54 -15 318 -1
259 -3 316 -15 332 -17 22 -166 114 -237 147 -27 12 -48 25 -48 30 0 5 -4 9
-10 9 -5 0 -31 13 -57 29 -27 16 -77 45 -113 64 -91 49 -90 62 12 121 127 75
129 76 126 93 -3 16 -62 56 -153 104 -54 29 -85 37 -115 29z"/>
<path d="M1785 2691 c-36 -7 -179 -87 -213 -119 l-25 -24 124 -72 c68 -40 147
-86 175 -102 28 -16 93 -54 146 -84 53 -30 102 -64 109 -75 10 -15 14 -92 14
-328 1 -250 3 -310 14 -317 16 -9 36 -4 71 21 14 9 53 32 85 50 65 35 93 61
101 93 2 12 3 157 2 322 -3 332 -2 324 -67 357 -41 21 -361 206 -411 237 -60
38 -89 47 -125 41z"/>
<path d="M100 473 c-14 -2 -39 -15 -55 -28 -30 -23 -30 -24 -32 -132 0 -59 3
-116 8 -125 22 -41 61 -49 222 -46 l152 3 0 25 0 25 -142 5 c-87 3 -146 9
-154 17 -12 12 -17 179 -5 191 4 4 71 8 149 10 78 2 146 7 150 12 5 4 6 17 2
29 -6 20 -12 21 -138 20 -73 -1 -143 -4 -157 -6z"/>
<path d="M446 472 c-9 -15 -6 -251 4 -276 15 -40 61 -54 188 -54 121 0 163 8
200 41 22 20 22 26 20 156 -3 133 -3 136 -26 139 -42 6 -48 -9 -47 -130 1
-150 0 -151 -142 -146 -82 2 -107 6 -116 19 -8 11 -12 56 -11 125 0 60 -3 115
-9 122 -10 13 -53 17 -61 4z"/>
<path d="M915 467 c-3 -7 -4 -82 -3 -167 l3 -155 169 -2 c179 -2 214 5 236 46
13 26 13 94 -1 108 -8 8 -8 17 1 32 6 12 10 41 8 64 -2 34 -9 45 -36 63 -30
21 -45 22 -202 24 -133 0 -171 -2 -175 -13z m322 -55 c6 -4 14 -19 18 -34 5
-20 2 -29 -13 -37 -28 -15 -249 -15 -254 0 -2 6 -2 26 0 45 l4 34 117 0 c64 0
121 -4 128 -8z m7 -157 c19 -19 11 -43 -18 -50 -11 -3 -70 -5 -131 -3 l-109 3
-1 33 -1 32 122 0 c97 0 126 -3 138 -15z"/>
<path d="M1410 462 c-18 -9 -35 -25 -40 -37 -13 -34 -11 -207 3 -234 19 -38
68 -49 223 -50 131 -1 142 0 147 18 9 36 -5 40 -144 42 -75 0 -142 4 -148 9
-7 4 -14 19 -15 34 l-3 26 153 0 c158 0 167 2 156 42 -4 15 -22 18 -155 20
l-150 3 -2 24 c-3 41 27 61 93 61 32 0 61 2 64 5 3 3 3 17 0 31 -4 24 -7 25
-78 23 -41 -1 -87 -9 -104 -17z"/>
<path d="M2011 467 c-54 -20 -61 -39 -61 -153 0 -56 3 -110 6 -119 4 -9 23
-24 43 -35 30 -15 60 -19 155 -19 190 0 204 11 207 165 1 110 -6 136 -49 158
-35 18 -253 20 -301 3z m254 -61 c16 -12 20 -28 21 -96 1 -105 -6 -112 -135
-109 -120 2 -124 6 -126 104 -2 108 6 115 128 115 64 0 99 -4 112 -14z"/>
<path d="M2413 472 c-9 -5 -11 -52 -10 -167 l2 -160 35 0 35 0 0 107 c1 59 4
110 7 114 4 3 26 -12 50 -33 24 -21 70 -61 103 -88 33 -27 71 -60 84 -72 51
-50 101 -43 102 14 1 47 1 275 0 286 -1 10 -43 9 -59 -2 -10 -6 -13 -37 -14
-115 0 -58 -2 -106 -5 -106 -5 0 -80 62 -148 122 -116 102 -149 121 -182 100z"/>
</g>
</svg>
